# 3ds Max Wavefront OBJ Exporter v0.97b - (c)2007 guruware
# File Created: 29.11.2015 02:09:30

mtllib 3d-model.mtl

#
# object Layer0_001
#

v  -79.6345 0.0000 25.9307
v  -83.6324 0.0000 4.4362
v  -81.9309 0.0000 -17.3606
v  -74.6459 0.0000 -37.9743
v  -76.7852 0.0000 4.0730
v  -75.2229 0.0000 -15.9392
v  -68.5344 0.0000 -34.8652
v  -62.2739 0.0000 -56.0002
v  -57.1754 0.0000 -51.4153
v  -45.6581 0.0000 -70.2097
v  -41.9199 0.0000 -64.4614
v  -25.9307 0.0000 -79.6346
v  -23.8077 0.0000 -73.1146
v  -4.4362 0.0000 -83.6324
v  -4.0730 0.0000 -76.7852
v  17.3606 0.0000 -81.9309
v  15.9392 0.0000 -75.2229
v  34.8653 0.0000 -68.5344
v  37.9743 0.0000 -74.6459
v  51.4153 0.0000 -57.1754
v  56.0002 0.0000 -62.2739
v  64.4614 0.0000 -41.9199
v  70.2097 0.0000 -45.6581
v  73.1146 0.0000 -23.8077
v  79.6345 0.0000 -25.9307
v  76.7852 0.0000 -4.0730
v  81.9309 0.0000 17.3606
v  75.2229 0.0000 15.9392
v  74.6459 0.0000 37.9743
v  68.5344 0.0000 34.8652
v  62.2739 0.0000 56.0002
v  57.1754 0.0000 51.4153
v  45.6581 0.0000 70.2097
v  41.9199 0.0000 64.4614
v  25.9307 0.0000 79.6345
v  23.8077 0.0000 73.1146
v  4.4362 0.0000 83.6324
v  4.0730 0.0000 76.7852
v  -15.9392 0.0000 75.2229
v  -17.3606 0.0000 81.9309
v  -34.8652 0.0000 68.5344
v  -37.9743 0.0000 74.6459
v  -51.4153 0.0000 57.1754
v  -56.0002 0.0000 62.2739
v  -64.4614 0.0000 41.9199
v  -70.2097 0.0000 45.6581
v  -73.1146 0.0000 23.8077
v  83.6324 0.0000 -4.4362
v  -73.1146 0.2500 23.8077
v  -76.7852 0.2500 4.0730
v  -75.2229 0.2500 -15.9392
v  -68.5344 0.2500 -34.8652
v  -64.4614 0.2500 41.9199
v  -57.1754 0.2500 -51.4153
v  -51.4153 0.2500 57.1754
v  -41.9199 0.2500 -64.4614
v  -34.8652 0.2500 68.5344
v  -23.8077 0.2500 -73.1146
v  -15.9392 0.2500 75.2229
v  -4.0730 0.2500 -76.7852
v  4.0730 0.2500 76.7852
v  15.9392 0.2500 -75.2229
v  23.8077 0.2500 73.1146
v  34.8653 0.2500 -68.5344
v  41.9199 0.2500 64.4614
v  51.4153 0.2500 -57.1754
v  57.1754 0.2500 51.4153
v  64.4614 0.2500 -41.9199
v  68.5344 0.2500 34.8652
v  73.1146 0.2500 -23.8077
v  75.2229 0.2500 15.9392
v  76.7852 0.2500 -4.0730
v  17.3606 19.5000 -81.9309
v  37.9743 19.5000 -74.6459
v  56.0002 19.5000 -62.2739
v  70.2097 19.5000 -45.6581
v  79.6345 19.5000 -25.9307
v  83.6324 19.5000 -4.4362
v  81.9309 19.5000 17.3606
v  74.6459 19.5000 37.9743
v  62.2739 19.5000 56.0002
v  45.6581 19.5000 70.2097
v  25.9307 19.5000 79.6345
v  4.4362 19.5000 83.6324
v  -17.3606 19.5000 81.9309
v  -37.9743 19.5000 74.6459
v  -56.0002 19.5000 62.2739
v  -70.2097 19.5000 45.6581
v  -79.6345 19.5000 25.9307
v  -83.6324 19.5000 4.4362
v  -81.9309 19.5000 -17.3606
v  -74.6459 19.5000 -37.9743
v  -62.2739 19.5000 -56.0002
v  -45.6581 19.5000 -70.2097
v  -25.9307 19.5000 -79.6346
v  -4.4362 19.5000 -83.6324
v  -76.7852 19.5000 4.0730
v  -73.1146 19.5000 23.8077
v  -64.4614 19.5000 41.9199
v  -51.4153 19.5000 57.1754
v  -34.8652 19.5000 68.5344
v  -15.9392 19.5000 75.2229
v  4.0730 19.5000 76.7852
v  23.8077 19.5000 73.1146
v  41.9199 19.5000 64.4614
v  57.1754 19.5000 51.4153
v  68.5344 19.5000 34.8652
v  75.2229 19.5000 15.9392
v  76.7852 19.5000 -4.0730
v  73.1146 19.5000 -23.8077
v  64.4614 19.5000 -41.9199
v  51.4153 19.5000 -57.1754
v  34.8653 19.5000 -68.5344
v  15.9392 19.5000 -75.2229
v  -4.0730 19.5000 -76.7852
v  -23.8077 19.5000 -73.1146
v  -41.9199 19.5000 -64.4614
v  -57.1754 19.5000 -51.4153
v  -68.5344 19.5000 -34.8652
v  -75.2229 19.5000 -15.9392
# 120 vertices

vn 0.0000 -1.0000 -0.0000
vn 0.4534 0.0000 -0.8913
vn 0.2073 0.0000 -0.9783
vn 0.6687 0.0000 -0.7436
vn 0.8383 0.0000 -0.5452
vn 0.9509 0.0000 -0.3096
vn 0.9986 0.0000 -0.0530
vn 0.9783 0.0000 0.2073
vn 0.8913 0.0000 0.4534
vn 0.7436 0.0000 0.6687
vn 0.5452 0.0000 0.8383
vn 0.3096 0.0000 0.9509
vn 0.0530 0.0000 0.9986
vn -0.2073 0.0000 0.9783
vn -0.4534 0.0000 0.8913
vn -0.6687 0.0000 0.7436
vn -0.8383 0.0000 0.5452
vn -0.9509 0.0000 0.3096
vn -0.9986 0.0000 0.0530
vn -0.9783 0.0000 -0.2073
vn -0.8913 0.0000 -0.4534
vn -0.7436 0.0000 -0.6687
vn -0.5452 0.0000 -0.8383
vn -0.3096 0.0000 -0.9509
vn -0.0530 0.0000 -0.9986
vn 0.0000 1.0000 -0.0000
# 26 vertex normals

vt 0.0000 0.0000 0.0000
vt 0.3045 0.0000 0.0000
vt 0.3045 0.5417 0.0000
vt 0.0000 0.5417 0.0000
vt 7.0040 0.0000 0.0000
vt 7.3086 0.0000 0.0000
vt 7.3086 0.5417 0.0000
vt 7.0040 0.5417 0.0000
vt 6.6995 0.5417 0.0000
vt 6.6995 0.0000 0.0000
vt 6.3950 0.5417 0.0000
vt 6.3950 0.0000 0.0000
vt 6.0905 0.5417 0.0000
vt 6.0905 0.0000 0.0000
vt 5.7859 0.5417 0.0000
vt 5.7859 0.0000 0.0000
vt 5.4814 0.5417 0.0000
vt 5.4814 0.0000 0.0000
vt 5.1769 0.5417 0.0000
vt 5.1769 0.0000 0.0000
vt 4.8724 0.0000 0.0000
vt 4.8724 0.5417 0.0000
vt 4.5679 0.0000 0.0000
vt 4.5679 0.5417 0.0000
vt 4.2633 0.0000 0.0000
vt 4.2633 0.5417 0.0000
vt 3.9588 0.0000 0.0000
vt 3.9588 0.5417 0.0000
vt 3.6543 0.0000 0.0000
vt 3.6543 0.5417 0.0000
vt 3.3498 0.0000 0.0000
vt 3.3498 0.5417 0.0000
vt 3.0452 0.5417 0.0000
vt 3.0452 0.0000 0.0000
vt 2.7407 0.5417 0.0000
vt 2.7407 0.0000 0.0000
vt 2.4362 0.5417 0.0000
vt 2.4362 0.0000 0.0000
vt 2.1317 0.5417 0.0000
vt 2.1317 0.0000 0.0000
vt 1.8271 0.5417 0.0000
vt 1.8271 0.0000 0.0000
vt 1.5226 0.5417 0.0000
vt 1.5226 0.0000 0.0000
vt 1.2181 0.0000 0.0000
vt 1.2181 0.5417 0.0000
vt 0.9136 0.0000 0.0000
vt 0.9136 0.5417 0.0000
vt 0.6090 0.0000 0.0000
vt 0.6090 0.5417 0.0000
vt -0.5902 3.4444 0.0000
vt -0.6298 2.8372 0.0000
vt -0.4989 2.2892 0.0000
vt -0.5393 2.8962 0.0000
vt -0.4191 2.3931 0.0000
vt -0.3016 1.8277 0.0000
vt -0.2379 1.9693 0.0000
vt -0.0512 1.4840 0.0000
vt -0.0080 1.6538 0.0000
vt 0.2351 1.2817 0.0000
vt 0.2548 1.4680 0.0000
vt 0.5378 1.2344 0.0000
vt 0.5328 1.4246 0.0000
vt 0.8069 1.5266 0.0000
vt 0.8364 1.3454 0.0000
vt 1.0584 1.7669 0.0000
vt 1.1104 1.6072 0.0000
vt 1.2703 2.1293 0.0000
vt 1.3411 2.0020 0.0000
vt 1.4281 2.5890 0.0000
vt 1.5130 2.5027 0.0000
vt 1.5210 3.1148 0.0000
vt 1.6141 3.0753 0.0000
vt 1.5427 3.6707 0.0000
vt 1.5823 4.2778 0.0000
vt 1.6378 3.6807 0.0000
vt 1.4917 4.2188 0.0000
vt 1.4514 4.8258 0.0000
vt 1.3715 4.7220 0.0000
vt 1.2540 5.2873 0.0000
vt 1.1903 5.1457 0.0000
vt 1.0036 5.6310 0.0000
vt 0.9605 5.4612 0.0000
vt 0.7173 5.8334 0.0000
vt 0.6976 5.6470 0.0000
vt 0.4196 5.6904 0.0000
vt 0.4146 5.8806 0.0000
vt 0.1456 5.5885 0.0000
vt 0.1161 5.7696 0.0000
vt -0.1060 5.3481 0.0000
vt -0.1579 5.5078 0.0000
vt -0.3179 4.9857 0.0000
vt -0.3887 5.1131 0.0000
vt -0.4757 4.5260 0.0000
vt -0.5605 4.6124 0.0000
vt -0.5685 4.0003 0.0000
vt -0.6617 4.0398 0.0000
vt -0.6853 3.4343 0.0000
vt 6.4306 0.5347 0.0000
vt 6.4306 -0.0000 0.0000
vt 6.7102 -0.0000 0.0000
vt 6.7102 0.5347 0.0000
vt -0.0000 0.5347 0.0000
vt 0.2796 -0.0000 0.0000
vt 0.2796 0.5347 0.0000
vt 0.5592 -0.0000 0.0000
vt 0.5592 0.5347 0.0000
vt 0.8388 -0.0000 0.0000
vt 0.8388 0.5347 0.0000
vt 1.1184 -0.0000 0.0000
vt 1.1184 0.5347 0.0000
vt 1.3980 -0.0000 0.0000
vt 1.3980 0.5347 0.0000
vt 1.6775 -0.0000 0.0000
vt 1.6775 0.5347 0.0000
vt 1.9571 -0.0000 0.0000
vt 1.9571 0.5347 0.0000
vt 2.2367 -0.0000 0.0000
vt 2.2367 0.5347 0.0000
vt 2.5163 -0.0000 0.0000
vt 2.5163 0.5347 0.0000
vt 2.7959 -0.0000 0.0000
vt 2.7959 0.5347 0.0000
vt 3.0755 -0.0000 0.0000
vt 3.0755 0.5347 0.0000
vt 3.3551 -0.0000 0.0000
vt 3.3551 0.5347 0.0000
vt 3.6347 -0.0000 0.0000
vt 3.6347 0.5347 0.0000
vt 3.9143 -0.0000 0.0000
vt 3.9143 0.5347 0.0000
vt 4.1939 -0.0000 0.0000
vt 4.1939 0.5347 0.0000
vt 4.4735 -0.0000 0.0000
vt 4.4735 0.5347 0.0000
vt 4.7531 -0.0000 0.0000
vt 4.7531 0.5347 0.0000
vt 5.0326 -0.0000 0.0000
vt 5.0326 0.5347 0.0000
vt 5.3122 -0.0000 0.0000
vt 5.3122 0.5347 0.0000
vt 5.5918 -0.0000 0.0000
vt 5.5918 0.5347 0.0000
vt 5.8714 -0.0000 0.0000
vt 5.8714 0.5347 0.0000
vt 6.1510 -0.0000 0.0000
vt 6.1510 0.5347 0.0000
# 147 texture coords

g Layer0_001
usemtl skp_front_default
s off
f 1/1/1 2/1/1 3/1/1 4/1/1 
f 5/1/1 1/1/1 4/1/1 6/1/1 
f 7/1/1 6/1/1 4/1/1 8/1/1 
f 9/1/1 7/1/1 8/1/1 10/1/1 
f 11/1/1 9/1/1 10/1/1 12/1/1 
f 13/1/1 11/1/1 12/1/1 14/1/1 
f 15/1/1 13/1/1 14/1/1 16/1/1 
f 17/1/1 15/1/1 16/1/1 18/1/1 
f 18/1/1 16/1/1 19/1/1 20/1/1 
f 20/1/1 19/1/1 21/1/1 22/1/1 
f 22/1/1 21/1/1 23/1/1 24/1/1 
f 24/1/1 23/1/1 25/1/1 26/1/1 
f 26/1/1 25/1/1 27/1/1 28/1/1 
f 28/1/1 27/1/1 29/1/1 30/1/1 
f 30/1/1 29/1/1 31/1/1 32/1/1 
f 32/1/1 31/1/1 33/1/1 34/1/1 
f 34/1/1 33/1/1 35/1/1 36/1/1 
f 36/1/1 35/1/1 37/1/1 38/1/1 
f 39/1/1 38/1/1 37/1/1 40/1/1 
f 41/1/1 39/1/1 40/1/1 42/1/1 
f 43/1/1 41/1/1 42/1/1 44/1/1 
f 45/1/1 43/1/1 44/1/1 46/1/1 
f 47/1/1 45/1/1 46/1/1 5/1/1 
f 5/1/1 46/1/1 1/1/1 
f 27/1/1 25/1/1 48/1/1 
f 49/1/1 50/1/1 51/1/1 52/1/1 
f 53/1/1 49/1/1 52/1/1 54/1/1 
f 55/1/1 53/1/1 54/1/1 56/1/1 
f 57/1/1 55/1/1 56/1/1 58/1/1 
f 59/1/1 57/1/1 58/1/1 60/1/1 
f 61/1/1 59/1/1 60/1/1 62/1/1 
f 63/1/1 61/1/1 62/1/1 64/1/1 
f 65/1/1 63/1/1 64/1/1 66/1/1 
f 67/1/1 65/1/1 66/1/1 68/1/1 
f 69/1/1 67/1/1 68/1/1 70/1/1 
f 71/1/1 69/1/1 70/1/1 72/1/1 
usemtl Stone_Sandstone_Ashlar_Light
f 19/1/2 16/2/3 73/3/3 74/4/2 
f 21/5/4 19/6/2 74/7/2 75/8/4 
f 76/9/5 23/10/5 21/5/4 75/8/4 
f 77/11/6 25/12/6 23/10/5 76/9/5 
f 78/13/7 48/14/7 25/12/6 77/11/6 
f 79/15/8 27/16/8 48/14/7 78/13/7 
f 80/17/9 29/18/9 27/16/8 79/15/8 
f 81/19/10 31/20/10 29/18/9 80/17/9 
f 33/21/11 31/20/10 81/19/10 82/22/11 
f 35/23/12 33/21/11 82/22/11 83/24/12 
f 37/25/13 35/23/12 83/24/12 84/26/13 
f 40/27/14 37/25/13 84/26/13 85/28/14 
f 42/29/15 40/27/14 85/28/14 86/30/15 
f 44/31/16 42/29/15 86/30/15 87/32/16 
f 44/31/16 87/32/16 88/33/17 46/34/17 
f 46/34/17 88/33/17 89/35/18 1/36/18 
f 1/36/18 89/35/18 90/37/19 2/38/19 
f 2/38/19 90/37/19 91/39/20 3/40/20 
f 3/40/20 91/39/20 92/41/21 4/42/21 
f 4/42/21 92/41/21 93/43/22 8/44/22 
f 10/45/23 8/44/22 93/43/22 94/46/23 
f 12/47/24 10/45/23 94/46/23 95/48/24 
f 14/49/25 12/47/24 95/48/24 96/50/25 
f 16/2/3 14/49/25 96/50/25 73/3/3 
f 97/51/26 89/52/26 88/53/26 98/54/26 
f 99/55/26 98/54/26 88/53/26 87/56/26 
f 100/57/26 99/55/26 87/56/26 86/58/26 
f 101/59/26 100/57/26 86/58/26 85/60/26 
f 102/61/26 101/59/26 85/60/26 84/62/26 
f 103/63/26 102/61/26 84/62/26 104/64/26 
f 104/64/26 84/62/26 83/65/26 105/66/26 
f 105/66/26 83/65/26 82/67/26 106/68/26 
f 106/68/26 82/67/26 81/69/26 107/70/26 
f 107/70/26 81/69/26 80/71/26 108/72/26 
f 108/72/26 80/71/26 79/73/26 109/74/26 
f 77/75/26 109/74/26 79/73/26 78/76/26 
f 110/77/26 109/74/26 77/75/26 76/78/26 
f 111/79/26 110/77/26 76/78/26 75/80/26 
f 112/81/26 111/79/26 75/80/26 74/82/26 
f 113/83/26 112/81/26 74/82/26 73/84/26 
f 114/85/26 113/83/26 73/84/26 115/86/26 
f 115/86/26 73/84/26 96/87/26 116/88/26 
f 116/88/26 96/87/26 95/89/26 117/90/26 
f 117/90/26 95/89/26 94/91/26 118/92/26 
f 118/92/26 94/91/26 93/93/26 119/94/26 
f 119/94/26 93/93/26 92/95/26 120/96/26 
f 97/51/26 120/96/26 92/95/26 89/52/26 
f 89/52/26 92/95/26 91/97/26 90/98/26 
f 98/99/6 49/100/6 50/101/7 97/102/7 
f 97/103/7 50/1/7 51/104/8 120/105/8 
f 120/105/8 51/104/8 52/106/9 119/107/9 
f 119/107/9 52/106/9 54/108/10 118/109/10 
f 54/108/10 56/110/11 117/111/11 118/109/10 
f 56/110/11 58/112/12 116/113/12 117/111/11 
f 58/112/12 60/114/13 115/115/13 116/113/12 
f 60/114/13 62/116/14 114/117/14 115/115/13 
f 62/116/14 64/118/15 113/119/15 114/117/14 
f 64/118/15 66/120/16 112/121/16 113/119/15 
f 68/122/17 111/123/17 112/121/16 66/120/16 
f 70/124/18 110/125/18 111/123/17 68/122/17 
f 72/126/19 109/127/19 110/125/18 70/124/18 
f 71/128/20 108/129/20 109/127/19 72/126/19 
f 69/130/21 107/131/21 108/129/20 71/128/20 
f 67/132/22 106/133/22 107/131/21 69/130/21 
f 67/132/22 65/134/23 105/135/23 106/133/22 
f 65/134/23 63/136/24 104/137/24 105/135/23 
f 63/136/24 61/138/25 103/139/25 104/137/24 
f 61/138/25 59/140/3 102/141/3 103/139/25 
f 59/140/3 57/142/2 101/143/2 102/141/3 
f 57/142/2 55/144/4 100/145/4 101/143/2 
f 100/145/4 55/144/4 53/146/5 99/147/5 
f 99/147/5 53/146/5 49/100/6 98/99/6 
# 106 polygons - 2 triangles

